<?xml version="1.0"?>
<svg xmlns="http://www.w3.org/2000/svg" xmlns:xlink="http://www.w3.org/1999/xlink" xmlns:svgjs="http://svgjs.com/svgjs" version="1.1" width="512" height="512" x="0" y="0" viewBox="0 0 512 512" style="enable-background:new 0 0 512 512" xml:space="preserve" class=""><g><linearGradient xmlns="http://www.w3.org/2000/svg" id="SVGID_1_" gradientTransform="matrix(1 0 0 -1 0 514)" gradientUnits="userSpaceOnUse" x1="8.753" x2="524.202" y1="112.84" y2="410.434"><stop stop-opacity="1" stop-color="#e1d8d0" offset="0"/><stop stop-opacity="1" stop-color="#e1d8d0" offset="1"/></linearGradient><g xmlns="http://www.w3.org/2000/svg"><path d="m418.32 2.5c-55.666-9.521-178.298 12.183-200.004 105.016-14.432 61.722-14.007 112.075-50.427 113.02-21.67.562-32.97-44.31-62.889-48.001-39.047-4.817-66.145 27.695-83.057 57.138-37.205 64.772-25.571 174.918 23.354 228.632 118.488 130.086 259.197-5.952 319.358-112.309 38.585-68.213 125.637-123.352 143.767-200.248 15.177-64.375-18.503-131.002-90.102-143.248z" fill="url(#SVGID_1_)" data-original="url(#SVGID_1_)" style=""/><path d="m360.246 274.783h-29.65c8.475-6.16 16.673-13.128 24.448-20.903 29.51-29.51 47.531-65.076 52.957-99.043-16.053 2.564-32.463 7.946-48.422 16.02 9.989-24.858 14.269-50.192 12.995-73.57-28.663 11.159-56.444 32.438-78.169 61.894-3.073-42.926-17.13-81.601-38.405-110.965-21.274 29.364-35.332 68.039-38.405 110.965-21.725-29.456-49.506-50.736-78.169-61.894-1.273 23.378 3.006 48.712 12.995 73.57-15.959-8.074-32.368-13.455-48.422-16.02 5.426 33.967 23.447 69.533 52.957 99.043 7.775 7.775 15.972 14.743 24.447 20.903h-29.65c-5.523 0-10 4.477-10 10v169c0 16.569 13.431 30 30 30h168.491c16.569 0 30-13.431 30-30v-169c.002-5.523-4.476-10-9.998-10z" fill="#373741" opacity=".2" data-original="#6583fe" style="" class=""/><g><g><g><g><g><g><path d="m363.66 75.61.01-.01c3.55-.53 6.62-.06 9.07 1.52 2.4 1.54 4.07 4.06 5.06 7.41v.01l-3.12 32.85c-.83 2.8-1.78 5.7-2.84 8.69-1.87 5.28-4.1 10.82-6.68 16.57-.1.23-.2.46-.31.7-2.04 4.51-4.28 9.15-6.72 13.87-4.71 9.09-10.14 18.49-16.24 27.95-18.73 29.06-39.56 52.25-56.67 64.61-.94.68-1.86 1.32-2.77 1.93-1.7 1.14-3.36 2.17-4.98 3.07-6.48 3.63-12.18 5.32-16.71 4.73-1.33-.17-2.55-.54-3.67-1.12-.29-.14-.57-.3-.84-.48-.01 0-.01-.01-.02-.01-1.08-.7-2.02-1.6-2.8-2.68-.11-.14-.21-.29-.31-.44-.79-1.18-1.42-2.56-1.9-4.13v-.01c0-.01-.01-.01-.01-.02s0-.03-.01-.04c-.07-.24-.14-.47-.19-.71-.01-.01-.01-.02-.01-.03-.01-.02-.02-.04-.02-.06-1.21-4.66-1.16-10.81.02-18.08.96-5.93 2.68-12.6 5.11-19.81 1.4-4.17 3.03-8.52 4.89-13.01 6.28-15.19 15.11-32.02 26.08-49.04.89-1.38 1.79-2.75 2.69-4.11 1.61-2.43 3.23-4.81 4.87-7.14 13.7-19.57 28.07-35.81 41-46.92.01-.01.03-.02.04-.03z" fill="#373741" data-original="#6583fe" style="" class=""/></g></g><g><g><path d="m134.2 85.73c0-.01 0-.01 0-.02.93-3.86 2.69-6.73 5.33-8.43 2.49-1.61 5.61-2.07 9.23-1.49l27.66 15.85c.02.02.04.04.06.05 12.89 11.05 27.22 27.2 40.89 46.69 1.63 2.32 3.25 4.69 4.86 7.1.99 1.49 1.98 3 2.96 4.52 10.81 16.77 19.55 33.37 25.81 48.39 1.95 4.67 3.66 9.18 5.11 13.5 2.24 6.64 3.88 12.81 4.89 18.37 1.37 7.53 1.57 13.94.49 18.85-.04.2-.09.39-.13.58 0 .01-.01.02-.01.03v.01c-.11.43-.22.84-.35 1.24-.45 1.43-1.02 2.7-1.74 3.81-.4.64-.86 1.22-1.37 1.74-.49.53-1.04.99-1.64 1.39-.07.06-.14.1-.21.15-.36.23-.73.43-1.11.61-1.11.54-2.32.88-3.62 1.02-.43.06-.88.09-1.33.09-.24.01-.48.01-.72 0-4.18-.1-9.17-1.84-14.73-5-1.62-.91-3.28-1.95-4.99-3.11-.17-.11-.34-.23-.52-.35-.35-.24-.71-.49-1.08-.74-.09-.07-.19-.14-.29-.21-17.23-12.26-38.32-35.64-57.27-65.04-6.1-9.46-11.54-18.87-16.25-27.97-2.42-4.69-4.65-9.29-6.67-13.78-4.61-10.19-8.16-19.79-10.54-28.38 0-.03-.01-.05-.02-.08z" fill="#373741" data-original="#6583fe" style="" class=""/></g></g></g><path d="m295.04 156.99c0 17.27-1.03 33.75-2.91 48.8v.01c-.49 3.99-1.04 7.87-1.65 11.64-1.94 12.05-4.45 22.96-7.41 32.34-.21.65-.42 1.3-.62 1.93-.35 1.05-.7 2.07-1.05 3.07-.61 1.73-1.24 3.4-1.88 5-6.32 15.77-14.14 25.33-22.63 25.96-.3.02-.59.03-.89.03-.34 0-.67-.01-1.01-.04-8.44-.71-16.22-10.26-22.51-25.95-.64-1.6-1.27-3.27-1.88-5-.36-1.01-.71-2.05-1.06-3.11-.19-.59-.38-1.18-.57-1.78-2.98-9.41-5.5-20.35-7.45-32.45-.6-3.74-1.15-7.58-1.64-11.53 0 0 0 0 0-.01-1.88-15.08-2.92-31.59-2.92-48.91 0-6.32.14-12.54.41-18.61 1.04-23.76 4.05-45.41 8.46-63.11 5.74-15.94 13.17-30.87 22.19-44.35 2.58-1.77 5.25-2.7 7.98-2.7s5.4.93 7.98 2.7c9.01 13.48 16.45 28.39 22.18 44.32 4.43 17.76 7.45 39.5 8.48 63.35.27 6.01.4 12.15.4 18.4z" fill="#ffffff" data-original="#ffffff" style="" class=""/><g fill="#fff"><path d="m402.35 172.67c-.01.02-.02.04-.03.06-.01.01-.01.03-.02.04-9.52 18.04-26.08 39.88-47.32 61.12-7.6 7.6-15.27 14.6-22.83 20.89-2.06 1.72-4.11 3.39-6.15 5-31.75 25.07-60.25 36.85-70.05 27.06l-.01-.01c-.34-.34-.66-.71-.95-1.1-3.52-4.72-3.19-12.72.36-22.82.19-.55.39-1.1.6-1.67.19-.48.37-.97.57-1.46.18-.46.37-.92.57-1.39.25-.61.52-1.24.8-1.87.25-.57.52-1.15.79-1.74.71-1.54 1.49-3.12 2.32-4.73.04-.09.09-.18.14-.27.11-.22.23-.44.35-.67.18-.34.36-.68.55-1.03 0-.01.01-.02.01-.02 6.85-12.76 17.15-27.35 30.08-42.26 0-.01 0-.01 0-.01 5.19-5.98 10.79-12 16.77-17.98 19.24-19.24 38.98-34.65 55.95-44.46 1.57-.91 3.11-1.77 4.63-2.58.01 0 .02-.01.03-.01l29.48-9.31c.01-.01.02-.01.03-.01h.01c3.75.18 6.77 1.29 8.9 3.42 2.17 2.17 3.29 5.27 3.43 9.12v.01.01z" fill="#ffffff" data-original="#ffffff" style="" class=""/><path d="m100.56 143.61c.19-3.69 1.3-6.65 3.41-8.76 2.15-2.15 5.19-3.26 8.97-3.42l29.23 9.2c.01.01.03.01.04.02.01 0 .01.01.02.01 1.71.91 3.45 1.88 5.23 2.92 16.87 9.82 36.45 25.13 55.54 44.22 6.02 6.02 11.66 12.09 16.88 18.1v.01c13.1 15.12 23.49 29.91 30.31 42.78 0 .01.01.01.01.02s.01.01.01.02c.19.35.38.7.56 1.05.08.15.15.3.23.45.07.13.14.26.21.39 0 .01.01.01.01.02v.01c.71 1.4 1.38 2.78 2.01 4.13.07.14.13.29.2.44.54 1.17 1.04 2.32 1.5 3.45.16.37.31.74.45 1.11.2.49.39.98.57 1.46.21.57.42 1.13.61 1.68 3.54 10.11 3.86 18.11.33 22.82-.29.38-.6.74-.94 1.08l-.01.01c-9.8 9.78-38.29-2-70.02-27.05-2.03-1.61-4.09-3.28-6.15-5-7.56-6.29-15.24-13.3-22.85-20.91-20.92-20.92-37.31-42.43-46.9-60.31 0-.01-.01-.02-.01-.03z" fill="#ffffff" data-original="#ffffff" style="" class=""/></g><g><path d="m256 262.965c-2.761 0-5-2.239-5-5v-169.351c0-2.761 2.239-5 5-5s5 2.239 5 5v169.351c0 2.761-2.239 5-5 5z" fill="#000000" data-original="#2626bc" style="" class=""/></g></g><path d="m340.246 463.783h-168.491c-16.569 0-30-13.431-30-30v-169c0-5.523 4.477-10 10-10h208.491c5.523 0 10 4.477 10 10v169c0 16.569-13.432 30-30 30z" fill="#373741" data-original="#6583fe" style="" class=""/><path d="m230.6 254.78c-.36-1.01-.71-2.05-1.06-3.11-.17-.11-.34-.23-.52-.35-.35-.24-.71-.49-1.08-.74-.09-.07-.19-.14-.29-.21-1.58.84-2.65 2.5-2.65 4.41 0 2.76 2.24 5 5 5h2.48c-.64-1.6-1.27-3.27-1.88-5zm20.6-4.2c-.07-.24-.14-.47-.19-.71-.01-.01-.01-.02-.01-.03v-.06h-.23c.08.15.15.3.23.45.07.14.15.27.22.41-.01-.02-.01-.04-.02-.06zm160.34-119.28c-1.14-1.13-2.75-1.65-4.33-1.4-2.73.44-5.46.95-8.18 1.54h-.01c-9.94 2.14-19.82 5.26-29.51 9.32-.01 0-.02.01-.03.01-1.45.6-2.89 1.22-4.32 1.88-21.48 9.62-41.9 23.77-59.74 41.61-2.72 2.72-5.35 5.51-7.9 8.34 1.67-11.63 2.52-23.54 2.52-35.61 0-5.46-.18-10.9-.53-16.3 18.69-24.85 42.7-44.51 68.28-55.98.06 11.91-1.33 24.16-4.14 36.52-.61 2.69 1.08 5.37 3.77 5.99 1.63.37 3.25-.1 4.42-1.14.76-.66 1.33-1.57 1.57-2.63.46-2.02.88-4.04 1.27-6.06 2.13-11.1 3.18-22.1 3.12-32.85v-.01c-.02-2.52-.1-5.03-.23-7.51-.09-1.6-.94-3.07-2.29-3.93-1.34-.87-3.03-1.04-4.52-.46-2.38.93-4.73 1.92-7.09 2.97l-.01.01c-9.61 4.31-18.99 9.7-27.98 16.03-.01.01-.03.02-.04.03-13.59 9.55-26.28 21.26-37.46 34.62-2.18-17.77-6.23-34.93-12.02-51.05-5.73-15.93-13.17-30.84-22.18-44.32-1.28-1.91-2.59-3.79-3.93-5.64-.94-1.29-2.45-2.06-4.05-2.06s-3.11.77-4.05 2.06c-1.34 1.85-2.65 3.73-3.93 5.64-9.02 13.48-16.45 28.41-22.19 44.35-5.78 16.12-9.83 33.28-12.01 51.04-11.18-13.4-23.78-25.07-37.34-34.62-.02-.01-.04-.03-.06-.05-8.85-6.22-18.11-11.54-27.66-15.85-2.49-1.12-5-2.18-7.52-3.16-1.5-.58-3.18-.41-4.52.46-1.35.86-2.2 2.33-2.29 3.93-.16 2.88-.23 5.78-.23 8.69v.02c.02 9.7.93 19.54 2.7 29.39.01.03.02.05.02.08 1.55 8.7 3.78 17.4 6.65 26.02-.45-.19-.89-.38-1.34-.56-.01 0-.01-.01-.02-.01-9.61-4-19.42-7.1-29.27-9.22-2.71-.59-5.43-1.1-8.15-1.53-1.58-.25-3.19.27-4.33 1.4-1.13 1.13-1.65 2.74-1.4 4.33.43 2.66.92 5.32 1.5 7.98 2.15 10.08 5.32 20.1 9.45 29.92 0 .01.01.02.01.03 9.62 22.99 24.42 44.88 43.4 63.86 4.35 4.35 8.86 8.47 13.49 12.36h-15.16c-8.27 0-15 6.73-15 15v169c0 19.3 15.7 35 35 35h168.49c19.3 0 35-15.7 35-35v-169c0-8.27-6.73-15-15-15h-15.16c4.63-3.89 9.14-8.01 13.5-12.36 19.21-19.21 34.13-41.4 43.74-64.69.01-.02.02-.04.03-.06 3.9-9.43 6.93-19.02 9.01-28.68v-.01c.61-2.78 1.13-5.56 1.58-8.35.25-1.59-.27-3.19-1.4-4.33zm-9.78 9.78c-6.73 31.95-24.39 63.4-50.25 89.27-7.13 7.12-14.69 13.61-22.55 19.43h-56.78c4.85-11.13 10.99-22 18.3-32.34 6.45-9.16 13.82-17.92 22.01-26.11 13.87-13.87 29.35-25.38 45.64-34.11 14.1-7.55 28.81-13.02 43.63-16.14zm-145.76-104.09c20.14 30.31 31.93 68.33 33.77 108.74.18 3.73.27 7.49.27 11.26 0 17.75-1.92 35.13-5.61 51.72-9.14 12.48-16.67 25.72-22.38 39.35 0 0-.01.01-.01.02-.24.55-.46 1.09-.69 1.64v.01c-.01.02-.01.03-.02.05h-10.68c-.14-.35-.29-.7-.44-1.05 0-.01-.01-.01-.01-.02-5.74-13.85-13.35-27.33-22.64-40.01-3.69-16.59-5.61-33.96-5.61-51.71 0-3.86.09-7.7.28-11.51 1.89-40.32 13.67-78.24 33.77-108.49zm-43.51 103.72c-.35 5.39-.53 10.82-.53 16.28 0 12.08.86 23.99 2.53 35.62-2.55-2.84-5.19-5.63-7.91-8.35-15.18-15.18-32.23-27.68-50.2-37-8.08-20.65-12.28-41.97-12.17-62.56 25.81 11.54 49.51 31.03 68.28 56.01zm-58.36 16.65c16.2 8.71 31.58 20.17 45.38 33.97 8.19 8.19 15.56 16.95 22.01 26.11 7.31 10.34 13.44 21.21 18.3 32.34h-9.82c-.35 0-.7.04-1.03.11-.47.09-.91.26-1.32.48-1.58.84-2.65 2.5-2.65 4.41 0 2.76 2.24 5 5 5h130.25c2.75 0 5 2.25 5 5v169c0 13.79-11.22 25-25 25h-168.5c-13.78 0-25-11.21-25-25v-169c0-2.75 2.25-5 5-5h44.25c2.76 0 5-2.24 5-5s-2.24-5-5-5h-12.95c-7.87-5.82-15.43-12.31-22.56-19.43-25.86-25.87-43.52-57.32-50.25-89.27 14.91 3.14 29.71 8.66 43.89 16.28zm97.07 93.22c-.07-.24-.14-.47-.19-.71-.01-.01-.01-.02-.01-.03v-.06h-.23c.08.15.15.3.23.45.07.14.15.27.22.41-.01-.02-.01-.04-.02-.06zm-20.6 4.2c-.36-1.01-.71-2.05-1.06-3.11-.17-.11-.34-.23-.52-.35-.35-.24-.71-.49-1.08-.74-.09-.07-.19-.14-.29-.21-1.58.84-2.65 2.5-2.65 4.41 0 2.76 2.24 5 5 5h2.48c-.64-1.6-1.27-3.27-1.88-5z" fill="#000000" data-original="#2626bc" style="" class=""/></g><g><path d="m276 301.102h-40c-2.761 0-5-2.239-5-5s2.239-5 5-5h40c2.761 0 5 2.239 5 5s-2.239 5-5 5z" fill="#000000" data-original="#2626bc" style="" class=""/></g></g><g fill="#6583fe"><path d="m419 360.954c-2.761 0-5-2.239-5-5 0-3.309-2.691-6-6-6-2.761 0-5-2.239-5-5s2.239-5 5-5c3.309 0 6-2.691 6-6 0-2.761 2.239-5 5-5s5 2.239 5 5c0 3.309 2.691 6 6 6 2.761 0 5 2.239 5 5s-2.239 5-5 5c-3.309 0-6 2.691-6 6 0 2.761-2.239 5-5 5z" fill="#373741" data-original="#6583fe" style="" class=""/><path d="m104 262.965c-2.761 0-5-2.239-5-5 0-3.309-2.691-6-6-6-2.761 0-5-2.239-5-5s2.239-5 5-5c3.309 0 6-2.692 6-6 0-2.761 2.239-5 5-5s5 2.239 5 5c0 3.309 2.691 6 6 6 2.761 0 5 2.239 5 5s-2.239 5-5 5c-3.309 0-6 2.691-6 6 0 2.761-2.239 5-5 5z" fill="#373741" data-original="#6583fe" style="" class=""/><path d="m182.294 58.217c-1.28 0-2.559-.488-3.536-1.464-1.953-1.953-1.953-5.119 0-7.071l10-10c1.953-1.952 5.118-1.952 7.071 0 1.953 1.953 1.953 5.119 0 7.071l-10 10c-.976.976-2.255 1.464-3.535 1.464z" fill="#373741" data-original="#6583fe" style="" class=""/><path d="m83 336.304c-1.28 0-2.559-.488-3.536-1.464-1.953-1.953-1.953-5.119 0-7.071l10-10c1.953-1.952 5.118-1.952 7.071 0 1.953 1.953 1.953 5.119 0 7.071l-10 10c-.976.976-2.255 1.464-3.535 1.464z" fill="#373741" data-original="#6583fe" style="" class=""/><path d="m430 203.977c-1.28 0-2.559-.488-3.536-1.464-1.953-1.953-1.953-5.119 0-7.071l10-10c1.953-1.952 5.118-1.952 7.071 0 1.953 1.953 1.953 5.119 0 7.071l-10 10c-.976.976-2.255 1.464-3.535 1.464z" fill="#373741" data-original="#6583fe" style="" class=""/></g></g></g></svg>
